<svg width="680" viewBox="0 0 680 300" xmlns="http://www.w3.org/2000/svg">
  <defs>
    <marker id="arr" viewBox="0 0 10 10" refX="8" refY="5" markerWidth="6" markerHeight="6" orient="auto-start-reverse">
      <path d="M2 1L8 5L2 9" fill="none" stroke="context-stroke" stroke-width="1.5" stroke-linecap="round" stroke-linejoin="round"/>
    </marker>
  </defs>

  <!-- Oberfläche -->
  <rect x="200" y="192" width="260" height="10" rx="3" fill="#888780"/>

  <!-- Vektor –l: von Sonne steil zum Ursprung -->
  <line x1="262" y1="58" x2="336" y2="188" stroke="#BA7517" stroke-width="2" marker-end="url(#arr)"/>
  <text x="305" y="118" font-family="serif" font-style="italic" font-size="16" fill="#BA7517">−l</text>

  <!-- Vektor v -->
  <line x1="340" y1="192" x2="506" y2="108" stroke="#185FA5" stroke-width="2" marker-end="url(#arr)"/>
  <text x="512" y="106" font-family="serif" font-style="italic" font-size="16" fill="#185FA5">v</text>

  <!-- Vektor h -->
  <line x1="340" y1="192" x2="375" y2="72" stroke="#3B6D11" stroke-width="2" marker-end="url(#arr)"/>
  <text x="380" y="70" font-family="serif" font-style="italic" font-size="16" fill="#3B6D11">h</text>

  <!-- Vektor n -->
  <line x1="340" y1="192" x2="340" y2="65" stroke="#222222" stroke-width="2" marker-end="url(#arr)"/>
  <text x="318" y="62" font-family="serif" font-style="italic" font-size="16" fill="#222222">n</text>

  <!-- Sonne -->
  <circle cx="224" cy="42" r="18" fill="#EF9F27" stroke="#BA7517" stroke-width="1.5"/>
  <line x1="224" y1="18" x2="224" y2="10" stroke="#BA7517" stroke-width="1.5" stroke-linecap="round"/>
  <line x1="224" y1="66" x2="224" y2="74" stroke="#BA7517" stroke-width="1.5" stroke-linecap="round"/>
  <line x1="200" y1="42" x2="192" y2="42" stroke="#BA7517" stroke-width="1.5" stroke-linecap="round"/>
  <line x1="248" y1="42" x2="256" y2="42" stroke="#BA7517" stroke-width="1.5" stroke-linecap="round"/>
  <line x1="207" y1="25" x2="201" y2="19" stroke="#BA7517" stroke-width="1.5" stroke-linecap="round"/>
  <line x1="241" y1="59" x2="247" y2="65" stroke="#BA7517" stroke-width="1.5" stroke-linecap="round"/>
  <line x1="241" y1="25" x2="247" y2="19" stroke="#BA7517" stroke-width="1.5" stroke-linecap="round"/>
  <line x1="207" y1="59" x2="201" y2="65" stroke="#BA7517" stroke-width="1.5" stroke-linecap="round"/>

  <!-- Auge -->
  <path d="M530 118 Q555 96 580 118 Q555 140 530 118 Z" fill="none" stroke="#222222" stroke-width="1.8"/>
  <circle cx="555" cy="118" r="10" fill="none" stroke="#222222" stroke-width="1.5"/>
  <circle cx="555" cy="118" r="4" fill="#222222"/>

  <text x="340" y="230" text-anchor="middle" font-family="sans-serif" font-size="14" fill="#555555">Makroskopisches Verhalten</text>
</svg>
