<svg width="680" viewBox="0 0 680 290" xmlns="http://www.w3.org/2000/svg">
  <defs>
    <marker id="arr-o" viewBox="0 0 10 10" refX="8" refY="5" markerWidth="5" markerHeight="5" orient="auto-start-reverse">
      <path d="M2 1L8 5L2 9" fill="none" stroke="#BA7517" stroke-width="1.5" stroke-linecap="round" stroke-linejoin="round"/>
    </marker>
    <marker id="arr-g" viewBox="0 0 10 10" refX="8" refY="5" markerWidth="5" markerHeight="5" orient="auto-start-reverse">
      <path d="M2 1L8 5L2 9" fill="none" stroke="#3B6D11" stroke-width="1.5" stroke-linecap="round" stroke-linejoin="round"/>
    </marker>
    <marker id="arr-b" viewBox="0 0 10 10" refX="8" refY="5" markerWidth="5" markerHeight="5" orient="auto-start-reverse">
      <path d="M2 1L8 5L2 9" fill="none" stroke="#185FA5" stroke-width="1.5" stroke-linecap="round" stroke-linejoin="round"/>
    </marker>
    <marker id="arr-n" viewBox="0 0 10 10" refX="8" refY="5" markerWidth="5" markerHeight="5" orient="auto-start-reverse">
      <path d="M2 1L8 5L2 9" fill="none" stroke="#222222" stroke-width="1.5" stroke-linecap="round" stroke-linejoin="round"/>
    </marker>
  </defs>

  <!-- Oberfläche -->
  <polygon points="
    55,200 75,177 95,190 118,153 130,173 148,143 170,160 188,135 200,155
    222,123 238,145 252,127 268,150 282,120 300,147
    320,113 338,135 355,123 370,143 390,117 408,140
    425,155 442,133 460,153 478,130 495,160 515,143 535,163 552,145 572,167 592,153 615,175 630,190
    630,240 55,240"
    fill="#5B5EBF" stroke="#3A3D99" stroke-width="1.5"/>

  <!-- Makronormale -->
  <line x1="320" y1="113" x2="320" y2="47" stroke="#222222" stroke-width="2" marker-end="url(#arr-n)"/>
  <text x="326" y="45" font-family="serif" font-style="italic" font-size="15" fill="#222222">n</text>



  <!-- Facette L1: x~170,y~152 -->
  <line x1="145" y1="100" x2="170" y2="152" stroke="#BA7517" stroke-width="1.8" marker-end="url(#arr-o)"/>
  <line x1="170" y1="152" x2="211" y2="123" stroke="#185FA5" stroke-width="1.8" marker-end="url(#arr-b)"/>
  <line x1="170" y1="152" x2="188" y2="106" stroke="#3B6D11" stroke-width="1.8" marker-end="url(#arr-g)"/>

  <!-- Facette L2: x~252,y~128 -->
  <line x1="227" y1="76" x2="252" y2="128" stroke="#BA7517" stroke-width="1.8" marker-end="url(#arr-o)"/>
  <line x1="252" y1="128" x2="293" y2="99" stroke="#185FA5" stroke-width="1.8" marker-end="url(#arr-b)"/>
  <line x1="252" y1="128" x2="269" y2="81" stroke="#3B6D11" stroke-width="1.8" marker-end="url(#arr-g)"/>

  <!-- Facette R1: x~390,y~118 -->
  <line x1="365" y1="68" x2="390" y2="118" stroke="#BA7517" stroke-width="1.8" marker-end="url(#arr-o)"/>
  <line x1="390" y1="118" x2="431" y2="89" stroke="#185FA5" stroke-width="1.8" marker-end="url(#arr-b)"/>
  <line x1="390" y1="118" x2="407" y2="71" stroke="#3B6D11" stroke-width="1.8" marker-end="url(#arr-g)"/>

  <!-- Facette R2: x~478,y~130 -->
  <line x1="453" y1="80" x2="478" y2="130" stroke="#BA7517" stroke-width="1.8" marker-end="url(#arr-o)"/>
  <line x1="478" y1="130" x2="519" y2="101" stroke="#185FA5" stroke-width="1.8" marker-end="url(#arr-b)"/>
  <line x1="478" y1="130" x2="495" y2="83" stroke="#3B6D11" stroke-width="1.8" marker-end="url(#arr-g)"/>

  <text x="320" y="262" text-anchor="middle" font-family="sans-serif" font-size="14" fill="#555555">Mikrofacetten</text>
</svg>
